<mxfile host="www.draw.io" modified="2019-12-09T06:02:13.825Z" agent="Mozilla/5.0 (Macintosh; Intel Mac OS X 10_13_6) AppleWebKit/537.36 (KHTML, like Gecko) Chrome/78.0.3904.97 Safari/537.36" etag="Tvzht9D8hzoQzXPEpCUR" version="12.3.3" type="github" pages="1">
  <diagram id="h-nl5lxO03copgnb_cJI" name="第 1 页">
    <mxGraphModel dx="1639" dy="902" grid="1" gridSize="10" guides="1" tooltips="1" connect="1" arrows="1" fold="1" page="1" pageScale="1" pageWidth="827" pageHeight="1169" math="0" shadow="0">
      <root>
        <mxCell id="0"/>
        <mxCell id="1" parent="0"/>
        <mxCell id="Yf0kbL9KeZLlyTGPM-XU-5" value="" style="edgeStyle=orthogonalEdgeStyle;rounded=0;orthogonalLoop=1;jettySize=auto;html=1;fontSize=16;" edge="1" parent="1" source="Yf0kbL9KeZLlyTGPM-XU-1" target="Yf0kbL9KeZLlyTGPM-XU-4">
          <mxGeometry relative="1" as="geometry"/>
        </mxCell>
        <mxCell id="Yf0kbL9KeZLlyTGPM-XU-1" value="出增量包" style="rounded=0;whiteSpace=wrap;html=1;fontSize=16;" vertex="1" parent="1">
          <mxGeometry x="20" y="720" width="120" height="60" as="geometry"/>
        </mxCell>
        <mxCell id="Yf0kbL9KeZLlyTGPM-XU-3" value="" style="edgeStyle=orthogonalEdgeStyle;rounded=0;orthogonalLoop=1;jettySize=auto;html=1;fontSize=16;" edge="1" parent="1" source="Yf0kbL9KeZLlyTGPM-XU-2" target="Yf0kbL9KeZLlyTGPM-XU-1">
          <mxGeometry relative="1" as="geometry"/>
        </mxCell>
        <mxCell id="Yf0kbL9KeZLlyTGPM-XU-2" value="得到信息（module-name和brnach）" style="rounded=0;whiteSpace=wrap;html=1;fontSize=16;" vertex="1" parent="1">
          <mxGeometry x="20" y="610" width="120" height="60" as="geometry"/>
        </mxCell>
        <mxCell id="Yf0kbL9KeZLlyTGPM-XU-7" value="" style="edgeStyle=orthogonalEdgeStyle;rounded=0;orthogonalLoop=1;jettySize=auto;html=1;fontSize=16;" edge="1" parent="1" source="Yf0kbL9KeZLlyTGPM-XU-4" target="Yf0kbL9KeZLlyTGPM-XU-6">
          <mxGeometry relative="1" as="geometry"/>
        </mxCell>
        <mxCell id="Yf0kbL9KeZLlyTGPM-XU-4" value="得到上次的base包" style="rounded=0;whiteSpace=wrap;html=1;fontSize=16;" vertex="1" parent="1">
          <mxGeometry x="20" y="840" width="120" height="60" as="geometry"/>
        </mxCell>
        <mxCell id="Yf0kbL9KeZLlyTGPM-XU-6" value="用出的增量包和出base包产出diff包" style="rounded=0;whiteSpace=wrap;html=1;fontSize=16;" vertex="1" parent="1">
          <mxGeometry x="20" y="960" width="120" height="60" as="geometry"/>
        </mxCell>
        <mxCell id="Yf0kbL9KeZLlyTGPM-XU-12" value="" style="edgeStyle=orthogonalEdgeStyle;rounded=0;orthogonalLoop=1;jettySize=auto;html=1;fontSize=16;" edge="1" parent="1" source="Yf0kbL9KeZLlyTGPM-XU-9" target="Yf0kbL9KeZLlyTGPM-XU-11">
          <mxGeometry relative="1" as="geometry"/>
        </mxCell>
        <mxCell id="Yf0kbL9KeZLlyTGPM-XU-9" value="选择模块和对应的分支" style="rounded=0;whiteSpace=wrap;html=1;fontSize=16;" vertex="1" parent="1">
          <mxGeometry x="250" y="1070" width="120" height="60" as="geometry"/>
        </mxCell>
        <mxCell id="Yf0kbL9KeZLlyTGPM-XU-11" value="等待出包（增量包+diff包）" style="rounded=0;whiteSpace=wrap;html=1;fontSize=16;" vertex="1" parent="1">
          <mxGeometry x="450" y="1070" width="120" height="60" as="geometry"/>
        </mxCell>
        <mxCell id="Yf0kbL9KeZLlyTGPM-XU-15" value="" style="edgeStyle=orthogonalEdgeStyle;rounded=0;orthogonalLoop=1;jettySize=auto;html=1;fontSize=16;" edge="1" parent="1" source="Yf0kbL9KeZLlyTGPM-XU-13" target="Yf0kbL9KeZLlyTGPM-XU-14">
          <mxGeometry relative="1" as="geometry"/>
        </mxCell>
        <mxCell id="Yf0kbL9KeZLlyTGPM-XU-16" value="Y" style="text;html=1;align=center;verticalAlign=middle;resizable=0;points=[];;labelBackgroundColor=#ffffff;fontSize=16;" vertex="1" connectable="0" parent="Yf0kbL9KeZLlyTGPM-XU-15">
          <mxGeometry x="-0.3255" y="-1" relative="1" as="geometry">
            <mxPoint as="offset"/>
          </mxGeometry>
        </mxCell>
        <mxCell id="Yf0kbL9KeZLlyTGPM-XU-18" style="edgeStyle=orthogonalEdgeStyle;rounded=0;orthogonalLoop=1;jettySize=auto;html=1;entryX=0;entryY=0.75;entryDx=0;entryDy=0;fontSize=16;" edge="1" parent="1" source="Yf0kbL9KeZLlyTGPM-XU-13" target="Yf0kbL9KeZLlyTGPM-XU-9">
          <mxGeometry relative="1" as="geometry">
            <Array as="points">
              <mxPoint x="230" y="840"/>
              <mxPoint x="230" y="1115"/>
            </Array>
          </mxGeometry>
        </mxCell>
        <mxCell id="Yf0kbL9KeZLlyTGPM-XU-19" value="N" style="text;html=1;align=center;verticalAlign=middle;resizable=0;points=[];;labelBackgroundColor=#ffffff;fontSize=16;" vertex="1" connectable="0" parent="Yf0kbL9KeZLlyTGPM-XU-18">
          <mxGeometry x="-0.3061" relative="1" as="geometry">
            <mxPoint as="offset"/>
          </mxGeometry>
        </mxCell>
        <mxCell id="Yf0kbL9KeZLlyTGPM-XU-13" value="出diff" style="rhombus;whiteSpace=wrap;html=1;fontSize=16;" vertex="1" parent="1">
          <mxGeometry x="270" y="800" width="80" height="80" as="geometry"/>
        </mxCell>
        <mxCell id="Yf0kbL9KeZLlyTGPM-XU-17" value="" style="edgeStyle=orthogonalEdgeStyle;rounded=0;orthogonalLoop=1;jettySize=auto;html=1;fontSize=16;" edge="1" parent="1" source="Yf0kbL9KeZLlyTGPM-XU-14" target="Yf0kbL9KeZLlyTGPM-XU-9">
          <mxGeometry relative="1" as="geometry"/>
        </mxCell>
        <mxCell id="Yf0kbL9KeZLlyTGPM-XU-14" value="选择客户" style="rounded=0;whiteSpace=wrap;html=1;fontSize=16;" vertex="1" parent="1">
          <mxGeometry x="250" y="940" width="120" height="60" as="geometry"/>
        </mxCell>
        <mxCell id="Yf0kbL9KeZLlyTGPM-XU-22" value="" style="edgeStyle=orthogonalEdgeStyle;rounded=0;orthogonalLoop=1;jettySize=auto;html=1;fontSize=16;entryX=0.5;entryY=0;entryDx=0;entryDy=0;" edge="1" parent="1" source="Yf0kbL9KeZLlyTGPM-XU-20" target="Yf0kbL9KeZLlyTGPM-XU-36">
          <mxGeometry relative="1" as="geometry">
            <mxPoint x="535" y="310" as="targetPoint"/>
          </mxGeometry>
        </mxCell>
        <mxCell id="Yf0kbL9KeZLlyTGPM-XU-28" value="0反馈问题" style="text;html=1;align=center;verticalAlign=middle;resizable=0;points=[];;labelBackgroundColor=#ffffff;fontSize=16;" vertex="1" connectable="0" parent="Yf0kbL9KeZLlyTGPM-XU-22">
          <mxGeometry x="-0.3969" relative="1" as="geometry">
            <mxPoint as="offset"/>
          </mxGeometry>
        </mxCell>
        <mxCell id="Yf0kbL9KeZLlyTGPM-XU-20" value="A场有模块有bug" style="rounded=0;whiteSpace=wrap;html=1;fontSize=16;" vertex="1" parent="1">
          <mxGeometry x="475" y="40" width="120" height="60" as="geometry"/>
        </mxCell>
        <mxCell id="Yf0kbL9KeZLlyTGPM-XU-23" value="反馈给RD" style="rounded=0;whiteSpace=wrap;html=1;fontSize=16;" vertex="1" parent="1">
          <mxGeometry x="290" y="680" width="200" height="60" as="geometry"/>
        </mxCell>
        <mxCell id="Yf0kbL9KeZLlyTGPM-XU-26" value="3我得去查查A场，上次是基于哪个分支搞的" style="shape=callout;whiteSpace=wrap;html=1;perimeter=calloutPerimeter;fontSize=16;size=19;position=0.13;position2=0;" vertex="1" parent="1">
          <mxGeometry x="555" y="270" width="120" height="80" as="geometry"/>
        </mxCell>
        <mxCell id="Yf0kbL9KeZLlyTGPM-XU-39" style="edgeStyle=orthogonalEdgeStyle;rounded=0;orthogonalLoop=1;jettySize=auto;html=1;entryX=0;entryY=0.75;entryDx=0;entryDy=0;fontSize=16;" edge="1" parent="1" source="Yf0kbL9KeZLlyTGPM-XU-36" target="Yf0kbL9KeZLlyTGPM-XU-37">
          <mxGeometry relative="1" as="geometry">
            <Array as="points">
              <mxPoint x="430" y="350"/>
              <mxPoint x="430" y="565"/>
            </Array>
          </mxGeometry>
        </mxCell>
        <mxCell id="Yf0kbL9KeZLlyTGPM-XU-40" value="1.你这个&lt;br&gt;模块有问题" style="text;html=1;align=center;verticalAlign=middle;resizable=0;points=[];;labelBackgroundColor=#ffffff;fontSize=16;" vertex="1" connectable="0" parent="Yf0kbL9KeZLlyTGPM-XU-39">
          <mxGeometry x="-0.143" relative="1" as="geometry">
            <mxPoint as="offset"/>
          </mxGeometry>
        </mxCell>
        <mxCell id="Yf0kbL9KeZLlyTGPM-XU-44" style="edgeStyle=orthogonalEdgeStyle;rounded=0;orthogonalLoop=1;jettySize=auto;html=1;exitX=1;exitY=0.75;exitDx=0;exitDy=0;entryX=1;entryY=0.75;entryDx=0;entryDy=0;fontSize=16;" edge="1" parent="1" source="Yf0kbL9KeZLlyTGPM-XU-36" target="Yf0kbL9KeZLlyTGPM-XU-37">
          <mxGeometry relative="1" as="geometry">
            <Array as="points">
              <mxPoint x="620" y="365"/>
              <mxPoint x="620" y="565"/>
            </Array>
          </mxGeometry>
        </mxCell>
        <mxCell id="Yf0kbL9KeZLlyTGPM-XU-45" value="4. XXX分支" style="text;html=1;align=center;verticalAlign=middle;resizable=0;points=[];;labelBackgroundColor=#ffffff;fontSize=16;" vertex="1" connectable="0" parent="Yf0kbL9KeZLlyTGPM-XU-44">
          <mxGeometry x="-0.1386" y="4" relative="1" as="geometry">
            <mxPoint as="offset"/>
          </mxGeometry>
        </mxCell>
        <mxCell id="Yf0kbL9KeZLlyTGPM-XU-48" style="edgeStyle=orthogonalEdgeStyle;rounded=0;orthogonalLoop=1;jettySize=auto;html=1;exitX=0.25;exitY=0.2;exitDx=0;exitDy=0;exitPerimeter=0;fontSize=16;entryX=0.9;entryY=0.5;entryDx=0;entryDy=0;entryPerimeter=0;" edge="1" parent="1" source="Yf0kbL9KeZLlyTGPM-XU-36" target="Yf0kbL9KeZLlyTGPM-XU-38">
          <mxGeometry relative="1" as="geometry">
            <mxPoint x="220" y="260" as="targetPoint"/>
            <Array as="points">
              <mxPoint x="525" y="270"/>
            </Array>
          </mxGeometry>
        </mxCell>
        <mxCell id="Yf0kbL9KeZLlyTGPM-XU-49" value="6这些模块，&lt;br&gt;这些分支，&lt;br&gt;这些pipeline" style="text;html=1;align=center;verticalAlign=middle;resizable=0;points=[];;labelBackgroundColor=#ffffff;fontSize=16;" vertex="1" connectable="0" parent="Yf0kbL9KeZLlyTGPM-XU-48">
          <mxGeometry x="0.5053" y="-2" relative="1" as="geometry">
            <mxPoint as="offset"/>
          </mxGeometry>
        </mxCell>
        <mxCell id="Yf0kbL9KeZLlyTGPM-XU-36" value="TS" style="shape=actor;whiteSpace=wrap;html=1;fontSize=16;" vertex="1" parent="1">
          <mxGeometry x="515" y="320" width="40" height="60" as="geometry"/>
        </mxCell>
        <mxCell id="Yf0kbL9KeZLlyTGPM-XU-41" style="edgeStyle=orthogonalEdgeStyle;rounded=0;orthogonalLoop=1;jettySize=auto;html=1;entryX=0.5;entryY=1;entryDx=0;entryDy=0;fontSize=16;" edge="1" parent="1" source="Yf0kbL9KeZLlyTGPM-XU-37" target="Yf0kbL9KeZLlyTGPM-XU-36">
          <mxGeometry relative="1" as="geometry"/>
        </mxCell>
        <mxCell id="Yf0kbL9KeZLlyTGPM-XU-43" value="2.我在哪&lt;br&gt;个分支上改" style="text;html=1;align=center;verticalAlign=middle;resizable=0;points=[];;labelBackgroundColor=#ffffff;fontSize=16;" vertex="1" connectable="0" parent="Yf0kbL9KeZLlyTGPM-XU-41">
          <mxGeometry x="-0.4446" y="-1" relative="1" as="geometry">
            <mxPoint as="offset"/>
          </mxGeometry>
        </mxCell>
        <mxCell id="Yf0kbL9KeZLlyTGPM-XU-46" style="edgeStyle=orthogonalEdgeStyle;rounded=0;orthogonalLoop=1;jettySize=auto;html=1;exitX=0.75;exitY=1;exitDx=0;exitDy=0;entryX=1;entryY=0.75;entryDx=0;entryDy=0;fontSize=16;" edge="1" parent="1" source="Yf0kbL9KeZLlyTGPM-XU-37" target="Yf0kbL9KeZLlyTGPM-XU-36">
          <mxGeometry relative="1" as="geometry">
            <Array as="points">
              <mxPoint x="545" y="600"/>
              <mxPoint x="760" y="600"/>
              <mxPoint x="760" y="350"/>
              <mxPoint x="555" y="350"/>
            </Array>
          </mxGeometry>
        </mxCell>
        <mxCell id="Yf0kbL9KeZLlyTGPM-XU-47" value="5. 改好了，&lt;br&gt;这个pipeline" style="text;html=1;align=center;verticalAlign=middle;resizable=0;points=[];;labelBackgroundColor=#ffffff;fontSize=16;" vertex="1" connectable="0" parent="Yf0kbL9KeZLlyTGPM-XU-46">
          <mxGeometry x="0.177" y="-3" relative="1" as="geometry">
            <mxPoint as="offset"/>
          </mxGeometry>
        </mxCell>
        <mxCell id="Yf0kbL9KeZLlyTGPM-XU-37" value="RD" style="shape=actor;whiteSpace=wrap;html=1;fontSize=16;" vertex="1" parent="1">
          <mxGeometry x="515" y="520" width="40" height="60" as="geometry"/>
        </mxCell>
        <mxCell id="Yf0kbL9KeZLlyTGPM-XU-52" value="" style="edgeStyle=orthogonalEdgeStyle;rounded=0;orthogonalLoop=1;jettySize=auto;html=1;fontSize=16;" edge="1" parent="1" source="Yf0kbL9KeZLlyTGPM-XU-38">
          <mxGeometry relative="1" as="geometry">
            <mxPoint x="160" y="380" as="targetPoint"/>
          </mxGeometry>
        </mxCell>
        <mxCell id="Yf0kbL9KeZLlyTGPM-XU-38" value="devops" style="shape=actor;whiteSpace=wrap;html=1;fontSize=16;" vertex="1" parent="1">
          <mxGeometry x="140" y="240" width="40" height="60" as="geometry"/>
        </mxCell>
        <mxCell id="Yf0kbL9KeZLlyTGPM-XU-53" style="edgeStyle=orthogonalEdgeStyle;rounded=0;orthogonalLoop=1;jettySize=auto;html=1;entryX=0.25;entryY=0.2;entryDx=0;entryDy=0;entryPerimeter=0;fontSize=16;" edge="1" parent="1" source="Yf0kbL9KeZLlyTGPM-XU-50" target="Yf0kbL9KeZLlyTGPM-XU-36">
          <mxGeometry relative="1" as="geometry"/>
        </mxCell>
        <mxCell id="Yf0kbL9KeZLlyTGPM-XU-54" value="7这个包" style="text;html=1;align=center;verticalAlign=middle;resizable=0;points=[];;labelBackgroundColor=#ffffff;fontSize=16;" vertex="1" connectable="0" parent="Yf0kbL9KeZLlyTGPM-XU-53">
          <mxGeometry x="-0.5318" y="3" relative="1" as="geometry">
            <mxPoint as="offset"/>
          </mxGeometry>
        </mxCell>
        <mxCell id="Yf0kbL9KeZLlyTGPM-XU-50" value="手动出包" style="rounded=0;whiteSpace=wrap;html=1;fontSize=16;" vertex="1" parent="1">
          <mxGeometry x="100" y="380" width="120" height="60" as="geometry"/>
        </mxCell>
      </root>
    </mxGraphModel>
  </diagram>
</mxfile>
